<?xml version="1.0" encoding="utf-8"?>
<!-- Generator: Adobe Illustrator 21.1.0, SVG Export Plug-In . SVG Version: 6.00 Build 0)  -->
<svg version="1.1" id="Layer_1" xmlns="http://www.w3.org/2000/svg" xmlns:xlink="http://www.w3.org/1999/xlink" x="0px" y="0px"
	 viewBox="0 0 792 612" style="enable-background:new 0 0 792 612;" xml:space="preserve">
<g>
	<path d="M436.3,158.5c5.1-0.5,9.7-1.7,13.9-3.5c4.2-1.8,7.3-2.7,9.2-2.7c2-0.2,4.8,0.4,8.6,1.6c3.8,1.3,6.3,2.5,7.5,3.8
		c0.9,0.7,2.2,3.1,4,7.1c1.8,4,2.7,6.7,2.7,7.9c0,0.7-1.9,3.2-5.6,7.5l-5.6,6.7l7.8,7.8c5.4,5.4,8,8.7,8,9.9c0,1.3-0.7,3.1-2.1,5.6
		l-2.4,3.8l-8.3-0.8c-5.5-0.7-11.4-1.1-17.7-1.1c-4.5,0-7.3,0.2-8.4,0.5c-1.2,0.4-2.5,1.3-4.2,2.9c-2.1,2.3-5.8,4.6-11,6.7
		c-4.5,2-7.1,3.7-7.8,5.2c-0.7,1.5,0,3.6,2.1,6.3c1.6,2.3,2.3,4.2,2.1,5.5c-0.2,1.3-1.4,2.4-3.8,3.1c-5.5,2.1-8.3,3.7-8.3,4.6
		c0.2,0.4,0.9,0.5,2.1,0.4c1.2-0.1,2.9-0.4,5.1-0.8c2.1-0.4,4.2-1,6.2-1.7c5.2-1.4,10,0.4,14.5,5.6l2.9,3.5l-2.9,4
		c-2.1,2.7-5.6,5.8-10.5,9.2c-4.8,3.5-7.1,5.6-6.8,6.4c0.3,0.8,1.8,1.7,4.7,2.5c3.6,1.3,6.5,3.2,8.7,5.9c2.2,2.7,3.1,5.2,2.5,7.5
		c-0.2,0.9-0.8,1.4-1.9,1.6c-1.1,0.2-3.5,0.3-7.2,0.3c-5.2-0.2-10.1,0.4-14.9,1.6c-4.7,1.3-8.2,2.9-10.3,5.1c-1.3,1.3-2,2.6-2.1,4
		c-0.2,1.4-0.1,5.3,0.3,11.5c0.5,9.8,1,15.6,1.3,17.3c0.4,1.7,1.6,2.4,3.8,2c1.4-0.2,2.4-0.5,2.8-0.9c0.4-0.4,0.7-1.4,0.8-2.9
		c0.1-1.5,0.4-2.5,0.9-3.1c0.5-0.5,1.6-1.1,3.2-1.6c2.5-0.7,5.8-3.7,10-8.8c4.2-5.2,6.5-7.8,6.8-7.8c0.4,0.2,0.4,0.8,0.3,1.9
		c-0.2,1.1-0.5,2.5-1.1,4.2c-0.5,1.7-1.1,2.9-1.6,3.6c-1.4,1.8-2,4.1-1.6,6.8c0.4,2.8,1.5,5.4,3.5,7.9l3.2,4.6l-2.9,3.2
		c-2.1,2.1-3.5,3.2-4,3.2s-2.7,1.3-6.4,4l-5.4,4.3l-2.9-3.8c-1.4-1.6-2.4-2.5-2.8-2.7c-0.4-0.2-1.1,0.2-2,1.1
		c-1.1,1.4-2.4,3.7-3.9,6.7c-1.5,3-2.5,5.7-3.1,8c-0.7,2.3-1.2,9.4-1.3,21.2c0,9.5-0.4,15.9-1.2,19.4s-2.5,6.4-5,8.7l-2.7,2.7
		l-3.8-5.1c-4.8-6.3-9.6-16.4-14.2-30.5c-2.9-9.5-5.1-15.4-6.6-17.8c-1.5-2.4-3.7-3.6-6.6-3.6c-2.9,0-4.8,0.9-5.9,2.7
		c-1.1,1.8-1.7,5.5-1.9,11.3c-0.4,6.4-1.2,11.6-2.4,15.5c-2.5,7.3-6.3,7.7-11.3,1.1c-1.4-2.1-2.3-3.8-2.7-5c-0.4-1.2-0.4-3.1,0-5.8
		c0.4-3.8,1.3-7.9,2.9-12.6c1.2-4.5,2.5-10,3.8-16.7c1.2-6.7,1.7-10.6,1.2-11.7c-0.4-1.1-0.2-2.4,0.7-4c0.9-1.6,2.1-2,3.5-1.1
		c3.9,2.1,6,6.4,6.2,12.9c0,2.7,0.2,4.3,0.5,5c0.4,0.6,1.2,1,2.7,1.2c2,0.4,3.4-0.1,4.3-1.3c0.9-1.2,4.4-1.9,10.5-1.9
		c10.5,0,16.6-2.1,18.2-6.2c0.5-1.6,0.9-7.3,1.1-17.2c0.2-9.8,0-15.5-0.5-17.1c-0.5-1.2-1.5-1.7-2.9-1.3c-1.4,0.4-4.6,2.1-9.6,5.4
		c-6.1,3.8-12.2,7.1-18.4,10.2c-6.2,3-10,4.6-11.4,4.6c-2.1,0-4-0.9-5.5-2.8c-1.5-1.9-2.5-4.2-2.8-7.1c-0.2-3.2,0.3-5.5,1.3-6.8
		c1.1-1.3,3.8-2.7,8-4.2c3.9-1.2,10.7-4.7,20.4-10.5c9.6-5.7,15.9-9.9,18.8-12.6c4.6-5,5.6-7.9,2.9-8.6c-1.4,0-6.3,2.1-14.7,6.2
		c-9.3,4.6-16.8,7.9-22.5,9.6c-5.7,1.8-12.8,3.2-21.2,4.3c-9.6,1.1-14.9,1.7-15.7,2c-0.8,0.3-1.7,0.1-2.8-0.4
		c-2-1.2-0.4-2.9,4.6-4.8c2.1-0.9,5.3-2,9.4-3.2c7.9-2.3,14.5-4.8,19.8-7.5c4.8-2.5,12-6.8,21.4-13c9.5-6.2,15-10,16.6-11.7
		c1.1-1.2,1.4-2,1.1-2.1c-0.2,0-1.2,0.2-2.9,0.5c-2.7,0.4-7.9,0.8-15.5,1.3c-5.2,0.4-8.5,0.4-10,0.3c-1.5-0.2-2.9-0.8-4.2-1.9
		l-2.9-2.1l3.2-1.3c2.1-0.9,3.9-1.3,5.4-1.3c1.6,0,4.1-0.7,7.5-2c3.4-1.3,5.4-2.4,6.2-3.1c0.9-1.1,0.8-1.6-0.3-1.6
		c-1.1,0-3.9-1.7-8.6-5.1c-5-3.8-8.9-6.2-11.8-7.2c-2.9-1.1-7.6-2-14.2-2.7c-14.1-1.2-21.2-3.1-21.2-5.6c0-1.4,4.3-3.5,13-6.3
		c8.7-2.8,13.4-4.6,14.3-5.5c0.9-0.9,1.3-3.5,1.3-7.9c0-4.4,0.4-6.6,1.1-6.6c0.7,0,2.9,1.5,6.4,4.6c2.3,2,4.1,3.2,5.4,3.8
		c1.2,0.5,3.2,0.8,5.9,0.8c4.1,0,8.8-0.9,13.9-2.8c5.2-1.9,10.6-3.3,16.3-4.2c12-2.1,17.9-3.9,17.7-5.4c-0.2-0.5-0.4-1.6-0.8-3.2
		c-0.4-1.2,0.1-1.9,1.3-1.9c0.9-0.2,3-0.2,6.4,0c5.2,0.2,9-0.1,11.5-0.9c2.5-0.8,4.6-2.5,6.4-5c1.4-2,2.9-4.5,4.4-7.5
		c1.5-3,2.3-5,2.3-5.9c0-0.7-4.3-1.1-12.9-1.1c-7.7,0-11.5-0.3-11.5-0.8c0-0.2,0.3-0.6,0.8-1.3C428,160,431.2,159,436.3,158.5z
		 M386.1,357.9c-1.8-0.9-3.3-1.5-4.7-1.9c-1.3-0.4-2.4-0.4-3.1-0.1c-0.7,0.3-1.1,0.8-1.1,1.7c0,1.1,1.6,4.7,4.8,11
		c3.2,6.3,5.7,10.4,7.5,12.3c2.7,3.4,4.2,3.3,4.6-0.3c0.2-1.6,0.1-4.1-0.3-7.5c-0.4-5.4-0.9-8.8-1.7-10.5
		C391.3,361.1,389.3,359.5,386.1,357.9z M397.9,218c-1.4-1.6-3.6-2.1-6.6-1.5c-2.9,0.6-5,1.9-6,3.9c-0.7,1.6-1.1,5.1-1.1,10.4l0.3,8
		l2.7-1.1c2.5-0.9,4.7-2.2,6.6-3.9c1.9-1.7,2.8-3.2,2.8-4.4c0-1.6,0.4-3.7,1.3-6.2C398.7,220.8,398.7,219,397.9,218z M413.7,216.1
		c0-1.4-0.4-2.1-1.3-2.1c-2.7,0.2-4.2,1.1-4.6,2.7c-0.2,0.9,0.4,1.6,1.6,2c1.2,0.4,2.3,0.4,3.1-0.1
		C413.3,218,413.7,217.2,413.7,216.1z M418.9,265c0.4-0.4,0.5-1.2,0.3-2.1c-0.3-1-0.7-1-1.3,0c-0.6,1-0.6,1.7,0.1,2.3
		C418.1,265.5,418.4,265.4,418.9,265z M442.9,298.9c3.9-2.9,9.2-1.6,15.8,3.8c1.4,1.1,2.3,2.2,2.5,3.5c0.3,1.3,0.5,4.1,0.7,8.6
		c0.2,6.3,0,14-0.5,23.3l-1.1,13.7l5.9,23.9c3.4,13.4,5.1,21.9,5.2,25.6c0.1,3.7-1.4,7.1-4.4,10.3c-2.3,2.1-4.8,3.3-7.4,3.6
		c-2.6,0.3-4.7-0.5-6.3-2.3c-1.1-1.1-1.6-1.9-1.6-2.5c0-0.6,0.5-2.1,1.6-4.4c3-6.8,2.9-18-0.3-33.5c-1.4-7-2.1-19.4-2.1-37.2
		c0-8.2,0-14-0.1-17.4c-0.1-3.4-0.4-6.4-0.9-9.1c-0.5-2.7-1.2-4.3-1.9-4.8c-0.7-0.5-1.9-1.1-3.5-1.6c-2-0.7-3-1.2-3.1-1.5
		C441.3,300.4,441.8,299.8,442.9,298.9z"/>
</g>
</svg>
