<?xml version="1.0" encoding="utf-8"?>
<!-- Generator: Adobe Illustrator 21.1.0, SVG Export Plug-In . SVG Version: 6.00 Build 0)  -->
<svg version="1.1" id="Layer_1" xmlns="http://www.w3.org/2000/svg" xmlns:xlink="http://www.w3.org/1999/xlink" x="0px" y="0px"
	 viewBox="0 0 600 600" style="enable-background:new 0 0 600 600;" xml:space="preserve">
<g>
	<g>
		<path d="M124,146.5c20.8,0,41.7,0,62.5,0c33.2,0,66.4,0,99.6,0c7.6,0,15.2,0,22.8,0c16.1,0,16.1-25,0-25c-20.8,0-41.7,0-62.5,0
			c-33.2,0-66.4,0-99.6,0c-7.6,0-15.2,0-22.8,0C107.9,121.5,107.9,146.5,124,146.5L124,146.5z"/>
	</g>
</g>
<g>
	<g>
		<path d="M124,216.5c20.8,0,41.7,0,62.5,0c33.2,0,66.4,0,99.6,0c7.6,0,15.2,0,22.8,0c16.1,0,16.1-25,0-25c-20.8,0-41.7,0-62.5,0
			c-33.2,0-66.4,0-99.6,0c-7.6,0-15.2,0-22.8,0C107.9,191.5,107.9,216.5,124,216.5L124,216.5z"/>
	</g>
</g>
<g>
	<g>
		<path d="M124,286.5c20.8,0,41.7,0,62.5,0c33.2,0,66.4,0,99.6,0c7.6,0,15.2,0,22.8,0c16.1,0,16.1-25,0-25c-20.8,0-41.7,0-62.5,0
			c-33.2,0-66.4,0-99.6,0c-7.6,0-15.2,0-22.8,0C107.9,261.5,107.9,286.5,124,286.5L124,286.5z"/>
	</g>
</g>
</svg>
